<?xml version="1.0" standalone="no"?>
<!DOCTYPE svg PUBLIC "-//W3C//DTD SVG 20010904//EN"
 "http://www.w3.org/TR/2001/REC-SVG-20010904/DTD/svg10.dtd">
<svg version="1.0" xmlns="http://www.w3.org/2000/svg"
 width="120.000000pt" height="100.000000pt" viewBox="0 0 120.000000 100.000000"
 preserveAspectRatio="xMidYMid meet">

<g transform="translate(0.000000,100.000000) scale(0.100000,-0.100000)"
fill="#000000" stroke="none">
<path d="M231 890 c-47 -11 -83 -40 -106 -86 -19 -36 -20 -59 -20 -309 0 -252
1 -272 20 -304 26 -44 62 -70 111 -81 51 -12 677 -12 728 0 49 11 85 37 111
81 19 32 20 52 20 304 0 250 -1 273 -20 309 -24 48 -58 74 -111 86 -48 12
-686 11 -733 0z"/>
</g>
</svg>
