<?xml version="1.0" standalone="no"?>
<!DOCTYPE svg PUBLIC "-//W3C//DTD SVG 20010904//EN"
 "http://www.w3.org/TR/2001/REC-SVG-20010904/DTD/svg10.dtd">
<svg version="1.0" xmlns="http://www.w3.org/2000/svg"
 width="140.000000pt" height="110.000000pt" viewBox="0 0 140.000000 110.000000"
 preserveAspectRatio="xMidYMid meet">

<g transform="translate(0.000000,110.000000) scale(0.100000,-0.100000)"
fill="#000000" stroke="none">
<path d="M3 715 l-105 -315 -85 0 -86 0 -54 165 c-30 91 -57 165 -60 165 -5
0 -110 -307 -110 -323 0 -4 44 -7 98 -7 l98 0 54 -165 c30 -91 57 -165 60
-165 3 0 30 74 60 165 l54 165 200 0 186 0 54 -200 c30 -91 57 -165 60 -165 3
0 30 74 60 165 l54 400 98 0 c54 0 98 3 98 7 0 30 -105 323 -110 323 -3 0 -30
-74 -60 -165 l-54 -165 -86 0 -85 0 -105 315 c-58 173 -500 315 -110 315 -3 0
-52 -142 -110 -315z"/>
</g>
</svg>
