<?xml version="1.0" standalone="no"?>
<!DOCTYPE svg PUBLIC "-//W3C//DTD SVG 20010904//EN"
 "http://www.w3.org/TR/2001/REC-SVG-20010904/DTD/svg10.dtd">
<svg version="1.0" xmlns="http://www.w3.org/2000/svg"
 width="170.000000pt" height="165.000000pt" viewBox="0 0 170.000000 165.000000"
 preserveAspectRatio="xMidYMid meet">

<g transform="translate(0.000000,165.000000) scale(0.100000,-0.100000)"
fill="#000000" stroke="none">
<path d="M759 1263 l-86 -258 -273 -5 -274 -5 210 -189 c115 -105 210 -195
212 -201 1 -6 -34 -116 -78 -244 -44 -129 -79 -235 -78 -236 2 -2 104 2 227
156 124 88 228 400 231 159 4 0 108 -71 231 -159 123 -87 100 -157 227 -156 1
1 -34 121 -79 266 -51 164 -78 300 -73 276 5 7 200 85 223 173 l214 160 -49 1
c-27 1 -154 4 -283 8 l-234 6 -85 500 c-46 138 -87 252 -91 252 -3 0 -45 -116
-92 -257z"/>
</g>
</svg>